#!OML:ASF F:\VICON\USERDATA\INSTALL\rory3\rory3.ASF
:FULLY-SPECIFIED
:DEGREES
28
root 0.044555624722926346 18.046498725262524 1.2441453545636971 -3.340866447885655 1.3455921113845517 -1.550032503303988
lfemur 8.611076255119455 -5.087166715680572 -21.131841297985375
ltibia 39.40035777537785
lfoot 9.325934035046611 -17.031618800462244
ltoes -13.995368806503368
rfemur -20.911805358094476 4.02141179035849 23.57688831591369
rtibia 28.07595511448274
rfoot -3.983733579990016 -2.394297236934156
rtoes 8.841107696401634
lowerback 8.32398464461117 -1.5343926733463884 -0.6547588339386057
upperback -0.16303951525277105 -1.985309591334768 2.124983048368552
thorax -5.202095747860111 -0.9946010699893107 2.552178833796268
lowerneck -16.618650431390993 -2.5743693250093744 -1.8030200079580117
upperneck 21.785240133128145 -3.0940506801478223 -0.3527425928208786
head 9.70758233683344 -1.626613836450553 -0.23615362438846665
lclavicle -4.512106235361912e-16 -7.748191310018601e-16
lhumerus -25.474858867364816 1.1594703770113863 81.65606466934473
lradius 27.66155414024257
lwrist 6.82453496892184
lhand -27.912076083713927 24.50173484449923
lfingers 7.12502
lthumb -1.4309809180452477 54.022482220151616
rclavicle -4.534185655647122e-16 -7.753016660743722e-16
rhumerus -37.86444462527463 -31.29053698410491 -69.32524612119286
rradius 19.643381461111424
rwrist 12.134151186759755
rhand -18.333806056904265 21.569844095104298
rfingers 7.12502
rthumb 8.042598956131172 -8.385117175430565
29
root -0.05113406502234946 18.11974878505615 2.058467644978018 -3.6336300463885984 1.2804338552816934 -3.261501052660535
lfemur 2.988978540855266 -4.58830284944576 -18.375895836794882
ltibia 48.1920958613342
lfoot 19.449285443204246 -19.23536594711187
ltoes 0.6300261486733558
rfemur -17.625199413836718 4.663683317296247 26.414924363703122
rtibia 27.318410641321478
rfoot -5.681902490048859 -3.29765715404117
rtoes 10.093341711488922
lowerback 8.510716449832568 -1.4823793654457829 0.9984979776548084
upperback -0.24869197362626672 -1.8149026437153435 2.452481251624042
thorax -5.525535009062514 -0.9209486395196448 2.169990515916335
lowerneck -16.596478583923204 -2.6463231866871926 -1.8213740459974073
upperneck 21.69981838631691 -3.233706075885591 -0.03412343984706323
head 9.683023914046961 -1.6695282580144484 -0.1715343644063766
lclavicle -4.509214053701443e-16 -7.745953988909051e-16
lhumerus -26.739976498234476 0.8746654647299987 81.97717057872845
lradius 26.955809384450436
lwrist 6.28274760113171
lhand -27.39179044375121 23.56418474185675
lfingers 7.12502
lthumb -0.7754440988841139 53.42237671472112
rclavicle -4.551119366224163e-16 -7.766966802428656e-16
rhumerus -36.510782405228944 -29.439846790095956 -71.07352373398813
rradius 20.08052614288247
rwrist 10.814535874648055
rhand -18.279405155906474 21.900943367201133
rfingers 7.12502
rthumb 8.03447713359566 -8.069457940940032
30
root -0.11756126715707055 18.175973572621583 2.8851777455635137 -3.742834461206778 0.7200426278970546 -3.666169496462045
lfemur -2.5822663726245008 -3.1386599000037254 -17.37146853162338
ltibia 55.643005167472516
lfoot 18.605824395078194 -18.436723830413204
ltoes -0.06628076627786106
rfemur -14.649941813010962 4.888844128107175 27.931645529440132
rtibia 26.770824192217994
rfoot -7.500803380732407 -3.996011130753494
rtoes 10.414151996429917
lowerback 8.43629379670698 -1.1415554273339463 1.4985216169941986
upperback -0.24734730274686462 -1.2642412769007123 2.376599955592982
thorax -5.617434020818857 -0.656267780055136 1.811581287171658
lowerneck -16.47053758008586 -2.726547704627208 -1.749809909199258
upperneck 21.530497700958687 -3.3988207728345845 0.17533894499437175
head 9.627149413868876 -1.7221067003717931 -0.13710046794573016
lclavicle -4.523715939837189e-16 -7.757162846070791e-16
lhumerus -27.870306065592597 0.6368936797296927 82.2424859227643
lradius 26.287126748764365
lwrist 5.190402496217743
lhand -26.815308980504522 24.607991804286875
lfingers 7.12502
lthumb -0.24058530476844164 54.56370750100122
rclavicle -4.57088505085689e-16 -7.783047857203386e-16
rhumerus -34.79968462642573 -27.179386261330652 -73.02778589235683
rradius 20.62206719946529
rwrist 9.830137954036527
rhand -17.572661224810503 22.85171724434642
rfingers 7.12502
rthumb 8.723958719778466 -7.040520895038903
31
root -0.17934990298383924 18.21293975855895 4.070449532246604 -3.9476981207326394 0.4609601738182918 -4.190857805008918
lfemur -7.806403433651887 -1.4430794230920556 -16.313845208715723
ltibia 61.427793412151246
lfoot 11.632514056128262 -16.35644615112792
ltoes -3.9381150350077476
rfemur -11.390305767428703 5.424562712105753 29.42068909934277
rtibia 25.843620234151444
rfoot -9.174681539252177 -4.839094632840313
rtoes 10.550697794148926
lowerback 8.579999735146634 -0.8513954323793738 2.1611260041852116
upperback -0.1858189569366815 -0.8019122420597149 2.345032985132047
thorax -5.679351799321227 -0.454300276298097 1.3371098761941371
lowerneck -16.267931108844863 -2.7926502849829298 -1.7139568402326424
upperneck 21.358832076360816 -3.559010565134871 0.38409988020231156
head 9.517402369990991 -1.7727209258923824 -0.08260122620370987
lclavicle -4.53519425635192e-16 -7.766034421624707e-16
lhumerus -29.12269234698231 1.701193971678086 81.99055742798052
lradius 25.641759204906652
lwrist 3.1485727958938816
lhand -27.365326006502073 23.643739546305905
lfingers 7.12502
lthumb -0.5782737896873094 53.66929326922897
rclavicle -4.5658203206505e-16 -7.777614324766476e-16
rhumerus -32.54165892560038 -24.75665818848026 -75.1411533525434
rradius 20.824535874733854
rwrist 9.87124572635187
rhand -16.97059715184017 23.871886132891582
rfingers 7.12502
rthumb 9.262853015470961 -5.930957406815304
32
root -0.2260846567213728 18.234096411996717 4.805756345002889 -3.9302738336594647 -0.19069358269747916 -4.685328081771813
lfemur -12.99685761190556 0.2282804462976462 -15.779854175861438
ltibia 64.78314294754188
lfoot 6.534280930736974 -13.952666585933056
ltoes -5.805165334645086
rfemur -8.271606348148337 6.0064944390175965 30.769557181052974
rtibia 24.824091970160566
rfoot -10.866176593946356 -5.311410901289888
rtoes 8.961267682229067
lowerback 8.64640313908913 -0.3939020834308858 2.862267145438686
upperback -0.23076991784110978 -0.1133905209630337 2.2722550480773593
thorax -5.866459969831335 -0.12927563366501643 0.7884806276512206
lowerneck -16.16477453091553 -2.886244292541321 -1.7663946016836853
upperneck 21.351044135302377 -3.7457190058166656 0.6042534267800527
head 9.479267516258163 -1.8356598155932409 -0.03940092283164165
lclavicle -4.531018360018624e-16 -7.762799696811958e-16
lhumerus -30.647975213174874 2.7241467805900497 81.73077636683539
lradius 25.31993817454287
lwrist 3.0578074570930793
lhand -28.228366360438276 21.6244387304244
lfingers 7.12502
lthumb -1.397149725298058 51.93489009080611
rclavicle -4.550092964140971e-16 -7.765668508054004e-16
rhumerus -30.152955545523575 -21.521079991096148 -77.27108016037916
rradius 21.460274381469436
rwrist 8.6823770627331
rhand -17.07849406943183 22.956070402869358
rfingers 7.12502
rthumb 9.10995392548353 -6.549896306541604
33
root -0.2455627267708912 18.219539064925172 5.70169187778218 -3.8897976607627474 -1.2181211072576132 -4.899740070105768
lfemur -17.874221762574777 1.9074214185939793 -15.628517608788815
ltibia 65.77566756574961
lfoot 1.901138617924599 -11.125700646890412
ltoes -5.687539854220239
rfemur -5.961096686152459 6.400125790877754 31.617539132618994
rtibia 24.795294263956748
rfoot -12.999517322233393 -5.127104546997453
rtoes 9.387798676575164
lowerback 8.96358293597083 0.15780896917229567 3.5111435829032267
upperback -0.2205388191096878 0.6827652470527685 2.091699502904879
thorax -5.9553462701587625 0.2418951678054354 0.08596203977017508
lowerneck -16.144893310808865 -2.959896727346901 -1.7290236153685605
upperneck 21.271596011582893 -3.911279783022645 0.7471426331890813
head 9.45675567142799 -1.8906120210680497 -0.02323021753859575
lclavicle -4.524932900020812e-16 -7.758093758057446e-16
lhumerus -32.165124191791286 3.914568323293464 81.2326184828077
lradius 25.149284886788053
lwrist 4.073736296081932
lhand -28.367096255277254 21.835353657266854
lfingers 7.12502
lthumb -1.6366968319868653 51.84843759290659
rclavicle -4.528397546167112e-16 -7.750539120890269e-16
rhumerus -28.305213181217475 -18.28488427875703 -79.17639439099426
rradius 22.940798537188684
rwrist 6.292585800848931
rhand -17.53984944816383 20.623167922740034
rfingers 7.12502
rthumb 8.726040426223042 -8.664234682935621
34
root -0.2513894518031422 18.15247065986667 6.400755671094103 -3.6685035497393645 -1.5789281149174033 -5.37040682285697
lfemur -22.4503290449269 2.764570837483396 -15.2907577223179
ltibia 64.54458181948709
lfoot -3.257024523994454 -8.029735663458089
ltoes -5.361435922349157
rfemur -3.8181773661900653 6.396916667106091 32.69825448408994
rtibia 25.381074037067393
rfoot -15.327604042457699 -5.378706841008352
rtoes 8.795860399212465
lowerback 9.568007850480232 0.4596347853380841 4.388144510161724
upperback -0.3092796617089245 1.2035537455074639 2.014194466452942
thorax -6.228078167519118 0.48005683491895423 -0.5633656903138735
lowerneck -16.19978443239184 -3.0052856915470154 -1.7177207589531258
upperneck 21.078118311336066 -4.0166391155825005 0.9377167322651688
head 9.404106131674164 -1.9202326017506528 0.029888607732947083
lclavicle -4.528365724905009e-16 -7.760743036861932e-16
lhumerus -33.872194439720865 4.974918294773221 80.70565469887681
lradius 25.03738923076333
lwrist 5.351206861364127
lhand -28.48192375063132 19.812122383934994
lfingers 7.12502
lthumb -2.0786928683974124 49.73092169997584
rclavicle -4.527237020072371e-16 -7.75037529943346e-16
rhumerus -26.427073539499904 -14.928198891813178 -80.82959078839062
rradius 24.72246316104854
rwrist 4.155955815435205
rhand -17.883885994111274 19.359089489103372
rfingers 7.12502
rthumb 8.45250581244736 -10.284324920430889
35
root -0.24241859802724453 18.084514575590244 6.996168821690551 -3.2099024008190935 -2.2635751443082546 -5.895869197754397
lfemur -26.07509294606821 3.7176992533764435 -14.787104591942867
ltibia 60.73213491168642
lfoot -6.02832542936489 -4.632927143013702
ltoes -4.963192831664113
rfemur -1.722537954088562 6.392564468437946 33.579004397763406
rtibia 25.510478249590847
rfoot -16.904889697835614 -5.615378590980576
rtoes 8.032523305717454
lowerback 10.05756107017897 0.8562851087854477 5.357780601366852
upperback -0.34945307099273426 1.8707216311657557 1.9805308439381086
thorax -6.242908570978982 0.7692717514284366 -1.188753382728982
lowerneck -16.194507781398805 -3.0433716772567876 -1.6553228167921918
upperneck 20.72370789973373 -4.114304522303538 1.008127726578779
head 9.300390315914642 -1.9481667435477563 0.04253934954614169
lclavicle -4.539991892135609e-16 -7.769725677577207e-16
lhumerus -35.153936518712634 6.155349830814474 80.12904001434723
lradius 24.833524609018504
lwrist 7.1322112926412835
lhand -28.474271500118054 19.19280368629614
lfingers 7.12502
lthumb -1.9453628085676047 49.170382005476924
rclavicle -4.536990323456167e-16 -7.75749690690602e-16
rhumerus -24.74786260808338 -11.512146978532716 -82.08250052253138
rradius 27.050256693902973
rwrist 1.5530663178672155
rhand -18.317898899137028 20.166784725733777
rfingers 7.12502
rthumb 8.12294931761915 -9.452930662195055
